<?xml version="1.0" encoding="utf-8"?>
<!-- Generator: Adobe Illustrator 16.0.4, SVG Export Plug-In . SVG Version: 6.00 Build 0)  -->
<!DOCTYPE svg PUBLIC "-//W3C//DTD SVG 1.1//EN" "http://www.w3.org/Graphics/SVG/1.1/DTD/svg11.dtd">
<svg version="1.1" id="Layer_1" xmlns="http://www.w3.org/2000/svg" xmlns:xlink="http://www.w3.org/1999/xlink" x="0px" y="0px"
	 width="120.0px" height="230.0px" viewBox="0 0 120 230" enable-background="new 0 0 120 230"
	 xml:space="preserve">
<colortri points="27 15 11 41 46 25 20" colors="1 0 0 1 1 0 0 1 1 0 0 1 "/>
<colortri points="53 48 11 41 46 25 20" colors="0 0 0 1 1 0 0 1 1 0 0 1 "/>
<colortri points="53 48 11 41 11 78 20" colors="0 0 0 1 1 0 0 1 1 0 0 1 "/>
<colortri points="53 48 47 103 11 78 20" colors="0 0 0 1 1 0 0 1 1 0 0 1 "/>
<colortri points="53 48 47 103 101 84 20" colors="0 0 0 1 1 0 0 1 1 0 0 1 "/>
<colortri points="53 48 110 50 101 84 20" colors="0 0 0 1 1 0 0 1 1 0 0 1 "/>
<colortri points="53 48 110 50 105 22 20" colors="0 0 0 1 1 0 0 1 1 0 0 1 "/>
<colortri points="53 48 64 20 105 22 20" colors="0 0 0 1 1 0 0 1 1 0 0 1 "/>
<colortri points="84 8 64 20 105 22 20" colors="1 0 0 1 1 0 0 1 1 0 0 1 "/>

<colortri points="33 93 53 120 76 120 20" colors=".2 .8 .2 1 .133 .55 .133 1 .133 .55 .133 1 "/>
<colortri points="86 89 47 103 76 120 20" colors=".2 .8 .2 1 .133 .55 .133 1 .133 .55 .133 1 "/>

<colortri points="58 120 63 120 60 218 20" colors=".8 .52 .25 1 .8 .52 .25 1 .22 .35 .17 1 "/>
<colortri points="65 218 63 120 60 218 20" colors=".22 .35 .17 1 .8 .52 .25 1 .22 .35 .17 1 "/>

<colortri points="65 166 85 147 120 147 20" colors="0 .55 0 1 0 .55 0 1 0 .55 0 1 "/>
<colortri points="65 166 110 165 120 147 20" colors="0 .8 0 1 0 .8 0 1 0 .8 0 1 "/>

<colortri points="59 180 34 157 15 163 20" colors="0 .55 0 1 0 .55 0 1 0 .55 0 1 "/>
<colortri points="59 180 34 157 34 150 20" colors="0 .8 0 1 0 .8 0 1 0 .8 0 1 "/>
<colortri points="20 162 34 157 34 150 20" colors="0 .8 0 1 0 .8 0 1 0 .8 0 1 "/>





</svg>